<?xml version="1.0" encoding="utf-8"?>
<!-- Generator: Adobe Illustrator 17.1.0, SVG Export Plug-In . SVG Version: 6.00 Build 0)  -->
<!DOCTYPE svg PUBLIC "-//W3C//DTD SVG 1.1//EN" "http://www.w3.org/Graphics/SVG/1.1/DTD/svg11.dtd">
<svg version="1.1" id="Ebene_1" xmlns="http://www.w3.org/2000/svg" xmlns:xlink="http://www.w3.org/1999/xlink" x="0px" y="0px"
	 viewBox="0 0 904.8 360" enable-background="new 0 0 904.8 360" xml:space="preserve">
<g>
	<path fill="#FFFFFF" d="M478.7,240c10,14.9,19.9,29.8,29.9,44.6c-42.2,31.9-115.1,34.7-163.8-15.7c-47-48.6-47.6-125.4-1.5-174.7
		c47.4-50.7,119.2-49.5,161.5-19.7c-10.2,14.7-20.5,29.4-30.7,44c-41.8-22.4-79.7-3.7-96.4,19.6c-19.8,27.6-18.2,64.7,4.2,90.5
		C401.3,251,440.2,264.7,478.7,240z"/>
	<path fill="#FFFFFF" d="M747.8,57.3c18.6,0,36.7,0,55.1,0c0,83.4,0,166.5,0,250.1c-18.2,0-36.5,0-55.1,0
		C747.8,224.2,747.8,140.9,747.8,57.3z"/>
	<path fill="#FFFFFF" d="M591.7,210.2c0,33,0,65,0,97.3c-18.6,0-36.7,0-55.3,0c0-50.7,0-101.4,0-152.5c44.7,0,89.5,0,134.6,0
		c0,18.3,0,36.4,0,55.2C645,210.2,618.8,210.2,591.7,210.2z"/>
	<path fill="#FFFFFF" d="M102.9,112.7c0-18.4,0-36.5,0-55c61.8,0,123.6,0,185.7,0c0,18.2,0,36.4,0,55
		C226.8,112.7,165,112.7,102.9,112.7z"/>
	<path fill="#FFFFFF" d="M536.3,112.6c0-18.5,0-36.6,0-55.1c61.9,0,123.5,0,185.7,0c0,18.1,0,36.4,0,55.1
		C660.4,112.6,598.6,112.6,536.3,112.6z"/>
	<path fill="#FFFFFF" d="M288.8,252.4c0,18.5,0,36.6,0,55.1c-62,0-123.8,0-185.9,0c0-18.4,0-36.5,0-55.1
		C164.7,252.4,226.5,252.4,288.8,252.4z"/>
	<path fill="#FFFFFF" d="M102.9,210c0-18.5,0-36.6,0-55.1c49.6,0,99,0,148.9,0c0,18.1,0,36.4,0,55.1C202.4,210,152.9,210,102.9,210z
		"/>
</g>
<g>
	<path fill="#FFFFFF" d="M884.9,21v319h-864V21H884.9 M900.9,5H4.9v351h896V5L900.9,5z"/>
</g>
</svg>
